<svg width="23" height="18" viewBox="0 0 23 18" fill="none" xmlns="http://www.w3.org/2000/svg">
<path fill-rule="evenodd" clip-rule="evenodd" d="M11.3867 10.914L11.4996 10.914L11.7522 10.9149C13.6828 10.9276 18.0947 11.1226 18.0947 14.113C18.0947 17.0837 13.8366 17.2775 11.7823 17.2901L11.0212 17.2901C9.09046 17.2774 4.67768 17.0826 4.67768 14.096C4.67768 11.1215 9.09046 10.9275 11.0212 10.9149L11.2738 10.914C11.3129 10.914 11.3506 10.914 11.3867 10.914ZM11.3867 12.414C9.01068 12.414 6.17768 12.706 6.17768 14.096C6.17768 15.4545 8.84158 15.7722 11.1695 15.7902L11.3867 15.791C13.7627 15.791 16.5947 15.5 16.5947 14.113C16.5947 12.709 13.7627 12.414 11.3867 12.414ZM19.3403 10.5082C21.7633 10.8712 22.2723 12.0092 22.2723 12.9002C22.2723 13.4442 22.0583 14.4372 20.6283 14.9822C20.5403 15.0152 20.4503 15.0312 20.3613 15.0312C20.0593 15.0312 19.7743 14.8472 19.6603 14.5482C19.5123 14.1612 19.7073 13.7272 20.0943 13.5802C20.7723 13.3222 20.7723 13.0372 20.7723 12.9002C20.7723 12.4622 20.2153 12.1562 19.1173 11.9922C18.7083 11.9302 18.4253 11.5492 18.4863 11.1382C18.5473 10.7282 18.9273 10.4552 19.3403 10.5082ZM4.28608 11.1382C4.34708 11.5492 4.06408 11.9302 3.65508 11.9922C2.55708 12.1562 2.00008 12.4622 2.00008 12.9002C2.00008 13.0372 2.00008 13.3212 2.67908 13.5802C3.06608 13.7272 3.26108 14.1612 3.11308 14.5482C2.99908 14.8472 2.71408 15.0312 2.41208 15.0312C2.32308 15.0312 2.23308 15.0152 2.14508 14.9822C0.714076 14.4362 0.500076 13.4432 0.500076 12.9002C0.500076 12.0102 1.00908 10.8712 3.43308 10.5082C3.84608 10.4562 4.22408 10.7282 4.28608 11.1382ZM11.3867 0.5C13.9067 0.5 15.9557 2.55 15.9557 5.069C15.9557 7.588 13.9067 9.638 11.3867 9.638H11.3597C10.1397 9.634 8.99668 9.156 8.14068 8.292C7.28268 7.429 6.81368 6.283 6.81864 5.066C6.81864 2.55 8.86768 0.5 11.3867 0.5ZM11.3867 2C9.69468 2 8.31866 3.377 8.31866 5.069C8.31568 5.889 8.62968 6.656 9.20468 7.235C9.77968 7.814 10.5457 8.135 11.3617 8.138L11.3867 8.888V8.138C13.0787 8.138 14.4557 6.762 14.4557 5.069C14.4557 3.377 13.0787 2 11.3867 2ZM17.5757 1.4795C19.3337 1.7685 20.6107 3.2725 20.6107 5.0555C20.6067 6.8505 19.2657 8.3905 17.4907 8.6395C17.4557 8.6445 17.4207 8.6465 17.3867 8.6465C17.0187 8.6465 16.6977 8.3755 16.6447 8.0005C16.5877 7.5895 16.8727 7.2105 17.2837 7.1535C18.3237 7.0075 19.1087 6.1055 19.1107 5.0535C19.1107 4.0105 18.3627 3.1285 17.3317 2.9595C16.9237 2.8925 16.6467 2.5065 16.7137 2.0975C16.7817 1.6885 17.1647 1.4145 17.5757 1.4795ZM6.05968 2.0975C6.12668 2.5065 5.84968 2.8925 5.44168 2.9595C4.41068 3.1285 3.66268 4.0105 3.66268 5.0555C3.66468 6.1055 4.44968 7.0085 5.48868 7.1535C5.89968 7.2105 6.18468 7.5895 6.12768 8.0005C6.07468 8.3755 5.75368 8.6465 5.38568 8.6465C5.35168 8.6465 5.31668 8.6445 5.28168 8.6395C3.50668 8.3905 2.16668 6.8505 2.16268 5.0575C2.16268 3.2725 3.43968 1.7685 5.19768 1.4795C5.61868 1.4135 5.99168 1.6905 6.05968 2.0975Z" fill="#8F95B2"/>
</svg>
