<svg width="24" height="24" viewBox="0 0 24 24" fill="none" xmlns="http://www.w3.org/2000/svg">
<path fill-rule="evenodd" clip-rule="evenodd" d="M17.0137 22H8.6659C5.59954 22 3.24714 20.8924 3.91533 16.4348L4.69336 10.3936C5.10526 8.16934 6.52402 7.31808 7.76888 7.31808H17.9474C19.2105 7.31808 20.5469 8.23341 21.0229 10.3936L21.8009 16.4348C22.3684 20.389 20.0801 22 17.0137 22Z" stroke="#8F95B2" stroke-width="1.5" stroke-linecap="round" stroke-linejoin="round"/>
<path d="M17.151 7.0984C17.151 4.71232 15.2167 2.77803 12.8307 2.77803V2.77803C11.6817 2.77316 10.5781 3.22619 9.76386 4.03695C8.94967 4.8477 8.49198 5.94939 8.49199 7.0984V7.0984" stroke="#8F95B2" stroke-width="1.5" stroke-linecap="round" stroke-linejoin="round"/>
<path d="M15.7963 11.6018H15.7506" stroke="#8F95B2" stroke-width="1.5" stroke-linecap="round" stroke-linejoin="round"/>
<path d="M9.96567 11.6018H9.91991" stroke="#8F95B2" stroke-width="1.5" stroke-linecap="round" stroke-linejoin="round"/>
</svg>
