<svg width="48" height="48" viewBox="0 0 48 48" fill="none" xmlns="http://www.w3.org/2000/svg">
<rect width="48" height="48" rx="17" fill="white"/>
<path fill-rule="evenodd" clip-rule="evenodd" d="M32.9133 28.3147L32.1444 22.1201C31.676 19.9096 30.3503 19 29.0865 19H18.9317C17.6502 19 16.2803 19.846 15.8826 22.1201L15.1049 28.3147C14.4686 32.8629 16.8106 34 19.8685 34H28.1585C31.2075 34 33.4789 32.3535 32.9133 28.3147ZM21.097 24.1486C20.6089 24.1486 20.2132 23.7413 20.2132 23.2389C20.2132 22.7366 20.6089 22.3293 21.097 22.3293C21.5851 22.3293 21.9808 22.7366 21.9808 23.2389C21.9808 23.7413 21.5851 24.1486 21.097 24.1486ZM26.002 23.2389C26.002 23.7413 26.3977 24.1486 26.8858 24.1486C27.3739 24.1486 27.7696 23.7413 27.7696 23.2389C27.7696 22.7366 27.3739 22.3293 26.8858 22.3293C26.3977 22.3293 26.002 22.7366 26.002 23.2389Z" fill="#130F26"/>
<path opacity="0.4" d="M28.9739 18.7743C28.977 18.8519 28.9621 18.9291 28.9303 19H27.4932C27.4654 18.9279 27.4506 18.8515 27.4497 18.7743C27.4497 16.8568 25.8899 15.3024 23.9657 15.3024C22.0416 15.3024 20.4818 16.8568 20.4818 18.7743C20.495 18.849 20.495 18.9253 20.4818 19H19.0099C18.9967 18.9253 18.9967 18.849 19.0099 18.7743C19.1217 16.1059 21.325 14 24.0049 14C26.6849 14 28.8882 16.1059 29 18.7743H28.9739Z" fill="#130F26"/>
</svg>
