<svg width="181" height="53" viewBox="0 0 181 53" fill="none" xmlns="http://www.w3.org/2000/svg">
<path d="M68.032 15.936C68.032 14.4 68.256 13.048 68.704 11.88C69.168 10.712 69.776 9.808 70.528 9.168C72 7.92 73.664 7.296 75.52 7.296C77.392 7.296 79.072 7.704 80.56 8.52C80.768 8.632 80.872 8.792 80.872 9V12.096C80.872 12.336 80.752 12.456 80.512 12.456H79.168C78.928 12.456 78.816 12.336 78.832 12.096L78.904 10.416C77.912 9.744 76.784 9.408 75.52 9.408C72.448 9.408 70.912 11.456 70.912 15.552C70.912 16.832 71.064 17.952 71.368 18.912C71.672 19.856 72.208 20.64 72.976 21.264C73.744 21.888 74.768 22.2 76.048 22.2C77.328 22.2 78.288 21.944 78.928 21.432L78.832 19.752C78.816 19.512 78.928 19.392 79.168 19.392H80.536C80.776 19.392 80.896 19.512 80.896 19.752V22.8C80.896 23.024 80.816 23.176 80.656 23.256C79.248 23.944 77.64 24.288 75.832 24.288C73.208 24.288 71.248 23.544 69.952 22.056C68.672 20.568 68.032 18.528 68.032 15.936ZM82.5738 7.704V6.456C82.5738 6.216 82.6938 6.096 82.9338 6.096H86.5578C86.7978 6.096 86.9178 6.216 86.9178 6.456V13.848C87.8138 12.52 89.0538 11.856 90.6378 11.856C93.1178 11.856 94.3578 13.216 94.3578 15.936V22.104H95.7738C96.0138 22.104 96.1338 22.224 96.1338 22.464V23.64C96.1338 23.88 96.0138 24 95.7738 24H90.5178C90.2778 24 90.1578 23.88 90.1578 23.64V22.464C90.1578 22.224 90.2778 22.104 90.5178 22.104H91.6698V17.136C91.6698 16.128 91.5418 15.392 91.2858 14.928C91.0298 14.464 90.5018 14.232 89.7018 14.232C88.9018 14.232 88.2378 14.472 87.7098 14.952C87.1818 15.432 86.9178 15.976 86.9178 16.584V22.104H88.3818C88.6218 22.104 88.7418 22.224 88.7418 22.464V23.64C88.7418 23.88 88.6218 24 88.3818 24H82.9338C82.6938 24 82.5738 23.88 82.5738 23.64V22.464C82.5738 22.224 82.6938 22.104 82.9338 22.104H84.2298V8.064H82.9338C82.6938 8.064 82.5738 7.944 82.5738 7.704ZM108.701 22.104H109.757C109.997 22.104 110.117 22.224 110.117 22.464V23.64C110.117 23.88 109.997 24 109.757 24H107.069C106.877 24 106.757 23.88 106.709 23.64L106.493 22.296C105.469 23.624 104.125 24.288 102.461 24.288C99.8689 24.288 98.5729 22.928 98.5729 20.208V14.088H97.3009C97.0609 14.088 96.9409 13.968 96.9409 13.728V12.48C96.9409 12.24 97.0609 12.12 97.3009 12.12H100.901C101.141 12.12 101.261 12.24 101.261 12.48V19.488C101.261 20.448 101.381 21.136 101.621 21.552C101.877 21.952 102.405 22.152 103.205 22.152C104.021 22.152 104.693 21.912 105.221 21.432C105.749 20.952 106.013 20.408 106.013 19.8V14.088H104.501C104.261 14.088 104.141 13.968 104.141 13.728V12.48C104.141 12.24 104.261 12.12 104.501 12.12H108.341C108.581 12.12 108.701 12.24 108.701 12.48V22.104ZM114.404 17.904C114.404 20.816 115.532 22.272 117.788 22.272C118.508 22.272 119.348 22.056 120.308 21.624C120.548 21.528 120.716 21.6 120.812 21.84L121.244 22.896C121.324 23.12 121.26 23.288 121.052 23.4C120.076 23.992 118.844 24.288 117.356 24.288C115.42 24.288 113.988 23.744 113.06 22.656C112.132 21.552 111.668 20.064 111.668 18.192C111.668 16.304 112.14 14.776 113.084 13.608C114.044 12.44 115.468 11.856 117.356 11.856C118.796 11.856 119.86 12.248 120.548 13.032C121.236 13.816 121.58 14.816 121.58 16.032C121.58 16.24 121.444 16.344 121.172 16.344H119.732C119.476 16.344 119.34 16.224 119.324 15.984C119.244 14.576 118.532 13.872 117.188 13.872C116.228 13.872 115.524 14.208 115.076 14.88C114.628 15.536 114.404 16.544 114.404 17.904ZM126.999 6.456V16.032H128.223L131.943 12.384C132.119 12.208 132.327 12.12 132.567 12.12H134.439C134.679 12.12 134.799 12.24 134.799 12.48V13.728C134.799 13.968 134.679 14.088 134.439 14.088H132.975L130.335 16.656L133.623 22.104H135.039C135.279 22.104 135.399 22.224 135.399 22.464V23.64C135.399 23.88 135.279 24 135.039 24H131.943C131.719 24 131.535 23.896 131.391 23.688L127.791 17.88H126.999V22.104H128.271C128.511 22.104 128.631 22.224 128.631 22.464V23.64C128.631 23.88 128.511 24 128.271 24H123.039C122.799 24 122.679 23.88 122.679 23.64V22.464C122.679 22.224 122.799 22.104 123.039 22.104H124.311V8.04H123.015C122.775 8.04 122.655 7.92 122.655 7.68V6.456C122.655 6.216 122.775 6.096 123.015 6.096H126.639C126.879 6.096 126.999 6.216 126.999 6.456ZM139.608 12.456L142.416 21.192L144.912 14.088H143.688C143.448 14.088 143.328 13.968 143.328 13.728V12.48C143.328 12.24 143.448 12.12 143.688 12.12H147.192C147.384 12.12 147.512 12.176 147.576 12.288C147.64 12.4 147.672 12.504 147.672 12.6C147.672 12.68 147.656 12.76 147.624 12.84L142.488 26.256C142.248 26.864 142.04 27.328 141.864 27.648C141.704 27.984 141.472 28.336 141.168 28.704C140.576 29.408 139.704 29.76 138.552 29.76C137.4 29.76 136.456 29.584 135.72 29.232C135.592 29.168 135.528 29.088 135.528 28.992C135.528 28.896 135.536 28.824 135.552 28.776L135.96 27.6C136.024 27.392 136.176 27.32 136.416 27.384C137.184 27.64 137.808 27.768 138.288 27.768C138.784 27.768 139.16 27.64 139.416 27.384C139.688 27.144 139.968 26.632 140.256 25.848L140.856 24.264L137.208 14.088H136.008C135.768 14.088 135.648 13.968 135.648 13.728V12.48C135.648 12.24 135.768 12.12 136.008 12.12H139.152C139.392 12.12 139.544 12.232 139.608 12.456Z" fill="#2D2D2D"/>
<path d="M69.996 42.004L69.352 43.894H70.192C70.332 43.894 70.402 43.964 70.402 44.104V44.79C70.402 44.93 70.332 45 70.192 45H67.21C67.07 45 67 44.93 67 44.79V44.104C67 43.964 67.07 43.894 67.21 43.894H68.036L70.836 35.69C70.892 35.5593 70.9853 35.494 71.116 35.494H72.474C72.6047 35.494 72.698 35.5593 72.754 35.69L75.582 43.894H76.534C76.674 43.894 76.744 43.964 76.744 44.104V44.79C76.744 44.93 76.674 45 76.534 45H73.02C72.88 45 72.81 44.93 72.81 44.79V44.104C72.81 43.964 72.88 43.894 73.02 43.894H73.888L73.23 42.004H69.996ZM71.606 36.838L70.276 40.954H72.922L71.606 36.838ZM83.4046 43.894H84.0066C84.1466 43.894 84.2166 43.964 84.2166 44.104V44.79C84.2166 44.93 84.1466 45 84.0066 45H82.4246C82.3033 45 82.2333 44.93 82.2146 44.79L82.1026 43.964C81.6266 44.7667 80.8659 45.168 79.8206 45.168C78.9059 45.168 78.2013 44.8833 77.7066 44.314C77.2119 43.7353 76.9646 42.844 76.9646 41.64C76.9646 40.4267 77.2493 39.5027 77.8186 38.868C78.3973 38.2333 79.1393 37.916 80.0446 37.916C80.4553 37.916 80.8193 37.9953 81.1366 38.154C81.4539 38.3033 81.6873 38.4853 81.8366 38.7V35.718H81.0946C80.9546 35.718 80.8846 35.648 80.8846 35.508V34.766C80.8846 34.626 80.9546 34.556 81.0946 34.556H83.1946C83.3346 34.556 83.4046 34.626 83.4046 34.766V43.894ZM81.8366 42.368V39.904C81.7153 39.7173 81.5006 39.5447 81.1926 39.386C80.8939 39.2273 80.5906 39.148 80.2826 39.148C79.1253 39.148 78.5466 39.932 78.5466 41.5C78.5466 42.704 78.8079 43.4553 79.3306 43.754C79.5546 43.8847 79.8626 43.95 80.2546 43.95C80.6466 43.95 81.0059 43.8053 81.3326 43.516C81.6686 43.2267 81.8366 42.844 81.8366 42.368ZM84.9867 39.008V38.28C84.9867 38.14 85.0567 38.07 85.1967 38.07H87.1147C87.2361 38.07 87.3061 38.14 87.3247 38.28L87.4367 39.092C87.9221 38.308 88.6501 37.916 89.6207 37.916C90.5914 37.916 91.2307 38.3267 91.5387 39.148C92.0427 38.3267 92.7754 37.916 93.7367 37.916C95.1834 37.916 95.9067 38.7093 95.9067 40.296V43.894H96.7047C96.8447 43.894 96.9147 43.964 96.9147 44.104V44.79C96.9147 44.93 96.8447 45 96.7047 45H93.6247C93.4847 45 93.4147 44.93 93.4147 44.79V44.104C93.4147 43.964 93.4847 43.894 93.6247 43.894H94.3387V40.996C94.3387 40.408 94.2641 39.9787 94.1147 39.708C93.9654 39.4373 93.6621 39.302 93.2047 39.302C92.7567 39.302 92.3974 39.4233 92.1267 39.666C91.8561 39.9087 91.7207 40.1933 91.7207 40.52V43.894H92.3927C92.5327 43.894 92.6027 43.964 92.6027 44.104V44.79C92.6027 44.93 92.5327 45 92.3927 45H89.5227C89.3827 45 89.3127 44.93 89.3127 44.79V44.104C89.3127 43.964 89.3827 43.894 89.5227 43.894H90.1527V40.996C90.1527 40.408 90.0781 39.9787 89.9287 39.708C89.7794 39.4373 89.4714 39.302 89.0047 39.302C88.5474 39.302 88.1834 39.442 87.9127 39.722C87.6514 39.9927 87.5207 40.31 87.5207 40.674V43.894H88.3747C88.5147 43.894 88.5847 43.964 88.5847 44.104V44.79C88.5847 44.93 88.5147 45 88.3747 45H85.2107C85.0707 45 85.0007 44.93 85.0007 44.79V44.104C85.0007 43.964 85.0707 43.894 85.2107 43.894H85.9527V39.218H85.1967C85.0567 39.218 84.9867 39.148 84.9867 39.008ZM100.017 43.894H100.899C101.039 43.894 101.109 43.964 101.109 44.104V44.79C101.109 44.93 101.039 45 100.899 45H97.5668C97.4268 45 97.3568 44.93 97.3568 44.79V44.104C97.3568 43.964 97.4268 43.894 97.5668 43.894C97.5668 43.894 97.8608 43.894 98.4488 43.894V39.218H97.6928C97.5528 39.218 97.4828 39.148 97.4828 39.008V38.28C97.4828 38.14 97.5528 38.07 97.6928 38.07H99.8068C99.9468 38.07 100.017 38.14 100.017 38.28V43.894ZM98.3228 36.824C98.1455 36.6373 98.0568 36.3993 98.0568 36.11C98.0568 35.8207 98.1455 35.5827 98.3228 35.396C98.5095 35.2 98.7521 35.102 99.0508 35.102C99.3588 35.102 99.6015 35.2 99.7788 35.396C99.9655 35.5827 100.059 35.8207 100.059 36.11C100.059 36.3993 99.9655 36.6373 99.7788 36.824C99.5921 37.0107 99.3448 37.104 99.0368 37.104C98.7381 37.104 98.5001 37.0107 98.3228 36.824ZM101.598 39.022V38.28C101.598 38.14 101.668 38.07 101.808 38.07H103.712C103.833 38.07 103.908 38.14 103.936 38.28L104.062 39.092C104.585 38.308 105.331 37.916 106.302 37.916C107.749 37.916 108.472 38.7093 108.472 40.296V43.894H109.284C109.424 43.894 109.494 43.964 109.494 44.104V44.79C109.494 44.93 109.424 45 109.284 45H106.232C106.092 45 106.022 44.93 106.022 44.79V44.104C106.022 43.964 106.092 43.894 106.232 43.894H106.904V40.996C106.904 40.408 106.829 39.9787 106.68 39.708C106.531 39.4373 106.223 39.302 105.756 39.302C105.289 39.302 104.902 39.442 104.594 39.722C104.286 40.002 104.132 40.3193 104.132 40.674V43.894H105C105.14 43.894 105.21 43.964 105.21 44.104V44.79C105.21 44.93 105.14 45 105 45H101.822C101.682 45 101.612 44.93 101.612 44.79V44.104C101.612 43.964 101.682 43.894 101.822 43.894H102.564V39.218H101.808C101.668 39.218 101.598 39.1527 101.598 39.022ZM113.27 35.494C114.465 35.438 115.351 35.41 115.93 35.41C116.509 35.41 116.938 35.424 117.218 35.452C117.507 35.4707 117.834 35.5173 118.198 35.592C118.562 35.6667 118.884 35.7693 119.164 35.9C119.453 36.0213 119.743 36.1987 120.032 36.432C120.321 36.6653 120.564 36.936 120.76 37.244C121.189 37.9533 121.404 38.868 121.404 39.988C121.404 41.6773 120.937 42.9373 120.004 43.768C119.071 44.5893 117.797 45 116.182 45H113.27C113.13 45 113.06 44.93 113.06 44.79V44.104C113.06 43.964 113.13 43.894 113.27 43.894H113.998V36.628H113.27C113.13 36.628 113.06 36.558 113.06 36.418V35.704C113.06 35.564 113.13 35.494 113.27 35.494ZM116.49 43.908C117.517 43.908 118.31 43.572 118.87 42.9C119.439 42.228 119.724 41.3087 119.724 40.142C119.724 38.9753 119.458 38.0887 118.926 37.482C118.403 36.8753 117.582 36.572 116.462 36.572H115.566V43.908H116.49ZM126.321 40.842V40.352C126.321 39.6893 126.134 39.274 125.761 39.106C125.583 39.0313 125.327 38.994 124.991 38.994C124.356 38.994 123.973 39.2927 123.843 39.89C123.815 40.03 123.745 40.1 123.633 40.1H122.737C122.587 40.1 122.522 40.03 122.541 39.89C122.578 39.2087 122.853 38.7093 123.367 38.392C123.88 38.0747 124.533 37.916 125.327 37.916C126.997 37.916 127.833 38.6813 127.833 40.212V43.894H128.435C128.575 43.894 128.645 43.964 128.645 44.104V44.79C128.645 44.93 128.575 45 128.435 45H126.783C126.661 45 126.591 44.93 126.573 44.79L126.475 44.146C125.971 44.8273 125.243 45.168 124.291 45.168C123.693 45.168 123.199 45.014 122.807 44.706C122.415 44.3887 122.219 43.8847 122.219 43.194C122.219 42.2887 122.597 41.668 123.353 41.332C123.978 41.0427 124.725 40.884 125.593 40.856C125.77 40.856 126.013 40.8513 126.321 40.842ZM126.349 42.886V41.808C125.453 41.808 124.902 41.85 124.697 41.934C124.491 42.018 124.309 42.102 124.151 42.186C123.852 42.3447 123.703 42.634 123.703 43.054C123.703 43.698 124.071 44.02 124.809 44.02C125.294 44.02 125.672 43.908 125.943 43.684C126.213 43.4507 126.349 43.1847 126.349 42.886ZM129.718 40.072C129.718 39.456 129.956 38.9427 130.432 38.532C130.908 38.1213 131.51 37.916 132.238 37.916C132.966 37.916 133.596 38 134.128 38.168C134.258 38.2053 134.324 38.2893 134.324 38.42V39.904C134.324 40.044 134.254 40.114 134.114 40.114H133.302C133.152 40.114 133.092 40.044 133.12 39.904L133.19 39.19C132.91 39.0407 132.602 38.966 132.266 38.966C131.519 38.966 131.146 39.2273 131.146 39.75C131.146 40.0207 131.267 40.2353 131.51 40.394C131.752 40.5527 132.046 40.6833 132.392 40.786C132.737 40.8793 133.082 40.9913 133.428 41.122C133.782 41.2433 134.081 41.458 134.324 41.766C134.566 42.0647 134.688 42.4473 134.688 42.914C134.688 43.6233 134.44 44.1787 133.946 44.58C133.451 44.972 132.756 45.168 131.86 45.168C131.234 45.168 130.576 45.0747 129.886 44.888C129.764 44.8507 129.704 44.762 129.704 44.622V43.138C129.704 42.998 129.774 42.928 129.914 42.928H130.726C130.866 42.928 130.931 42.998 130.922 43.138L130.88 43.866C131.132 44.0527 131.491 44.146 131.958 44.146C132.788 44.146 133.204 43.852 133.204 43.264C133.204 42.9653 133.082 42.732 132.84 42.564C132.606 42.3867 132.317 42.2513 131.972 42.158C131.636 42.0647 131.295 41.962 130.95 41.85C130.604 41.7287 130.31 41.5233 130.068 41.234C129.834 40.9353 129.718 40.548 129.718 40.072ZM135.393 35.494V34.766C135.393 34.626 135.463 34.556 135.603 34.556H137.717C137.857 34.556 137.927 34.626 137.927 34.766V39.078C138.45 38.3033 139.173 37.916 140.097 37.916C141.544 37.916 142.267 38.7093 142.267 40.296V43.894H143.093C143.233 43.894 143.303 43.964 143.303 44.104V44.79C143.303 44.93 143.233 45 143.093 45H140.027C139.887 45 139.817 44.93 139.817 44.79V44.104C139.817 43.964 139.887 43.894 140.027 43.894H140.699V40.996C140.699 40.408 140.625 39.9787 140.475 39.708C140.326 39.4373 140.018 39.302 139.551 39.302C139.085 39.302 138.697 39.442 138.389 39.722C138.081 40.002 137.927 40.3193 137.927 40.674V43.894H138.781C138.921 43.894 138.991 43.964 138.991 44.104V44.79C138.991 44.93 138.921 45 138.781 45H135.603C135.463 45 135.393 44.93 135.393 44.79V44.104C135.393 43.964 135.463 43.894 135.603 43.894H136.359V35.704H135.603C135.463 35.704 135.393 35.634 135.393 35.494ZM144.74 43.894V35.718H143.984C143.844 35.718 143.774 35.648 143.774 35.508V34.766C143.774 34.626 143.844 34.556 143.984 34.556H146.098C146.238 34.556 146.308 34.626 146.308 34.766V39.12C146.532 38.7467 146.831 38.4527 147.204 38.238C147.587 38.0233 147.997 37.916 148.436 37.916C149.295 37.916 149.967 38.2007 150.452 38.77C150.937 39.3393 151.18 40.2307 151.18 41.444C151.18 42.648 150.9 43.572 150.34 44.216C149.789 44.8507 149.061 45.168 148.156 45.168C147.643 45.168 147.195 45.0793 146.812 44.902C146.439 44.7153 146.168 44.4867 146 44.216L145.916 44.79C145.907 44.93 145.837 45 145.706 45H143.998C143.858 45 143.788 44.93 143.788 44.79V44.104C143.788 43.964 143.858 43.894 143.998 43.894H144.74ZM146.308 40.772V43.25C146.42 43.418 146.635 43.5813 146.952 43.74C147.279 43.8987 147.596 43.978 147.904 43.978C149.033 43.978 149.598 43.18 149.598 41.584C149.598 40.4267 149.337 39.6987 148.814 39.4C148.59 39.2693 148.282 39.204 147.89 39.204C147.498 39.204 147.134 39.3487 146.798 39.638C146.471 39.918 146.308 40.296 146.308 40.772ZM152.16 41.64C152.16 40.94 152.267 40.3333 152.482 39.82C152.697 39.3067 152.977 38.9193 153.322 38.658C153.985 38.1633 154.703 37.916 155.478 37.916C156.047 37.916 156.528 38.0047 156.92 38.182C157.312 38.3593 157.615 38.5647 157.83 38.798C158.054 39.0313 158.241 39.3673 158.39 39.806C158.549 40.2447 158.628 40.758 158.628 41.346C158.628 42.5967 158.311 43.5487 157.676 44.202C157.051 44.846 156.248 45.168 155.268 45.168C154.288 45.168 153.523 44.874 152.972 44.286C152.431 43.6887 152.16 42.8067 152.16 41.64ZM155.38 44.02C155.94 44.02 156.346 43.8147 156.598 43.404C156.859 42.984 156.99 42.3633 156.99 41.542C156.99 40.7207 156.859 40.1047 156.598 39.694C156.346 39.274 155.931 39.064 155.352 39.064C154.279 39.064 153.742 39.82 153.742 41.332C153.742 43.124 154.288 44.02 155.38 44.02ZM163.713 40.842V40.352C163.713 39.6893 163.526 39.274 163.153 39.106C162.976 39.0313 162.719 38.994 162.383 38.994C161.748 38.994 161.366 39.2927 161.235 39.89C161.207 40.03 161.137 40.1 161.025 40.1H160.129C159.98 40.1 159.914 40.03 159.933 39.89C159.97 39.2087 160.246 38.7093 160.759 38.392C161.272 38.0747 161.926 37.916 162.719 37.916C164.39 37.916 165.225 38.6813 165.225 40.212V43.894H165.827C165.967 43.894 166.037 43.964 166.037 44.104V44.79C166.037 44.93 165.967 45 165.827 45H164.175C164.054 45 163.984 44.93 163.965 44.79L163.867 44.146C163.363 44.8273 162.635 45.168 161.683 45.168C161.086 45.168 160.591 45.014 160.199 44.706C159.807 44.3887 159.611 43.8847 159.611 43.194C159.611 42.2887 159.989 41.668 160.745 41.332C161.37 41.0427 162.117 40.884 162.985 40.856C163.162 40.856 163.405 40.8513 163.713 40.842ZM163.741 42.886V41.808C162.845 41.808 162.294 41.85 162.089 41.934C161.884 42.018 161.702 42.102 161.543 42.186C161.244 42.3447 161.095 42.634 161.095 43.054C161.095 43.698 161.464 44.02 162.201 44.02C162.686 44.02 163.064 43.908 163.335 43.684C163.606 43.4507 163.741 43.1847 163.741 42.886ZM169.263 39.274C169.422 38.9007 169.678 38.5833 170.033 38.322C170.388 38.0513 170.775 37.916 171.195 37.916C171.615 37.916 171.937 37.9533 172.161 38.028C172.273 38.0653 172.329 38.1493 172.329 38.28V40.17C172.329 40.31 172.259 40.38 172.119 40.38H171.209C171.069 40.38 171.004 40.31 171.013 40.17L171.069 39.358C171.022 39.3487 170.943 39.344 170.831 39.344C170.402 39.344 170.047 39.5213 169.767 39.876C169.487 40.2213 169.347 40.688 169.347 41.276V43.894H170.887C171.027 43.894 171.097 43.964 171.097 44.104V44.79C171.097 44.93 171.027 45 170.887 45H167.037C166.897 45 166.827 44.93 166.827 44.79V44.104C166.827 43.964 166.897 43.894 167.037 43.894H167.779V39.218H167.023C166.883 39.218 166.813 39.148 166.813 39.008V38.28C166.813 38.14 166.883 38.07 167.023 38.07H168.871C169.002 38.07 169.081 38.14 169.109 38.28L169.263 39.274ZM179.504 43.894H180.106C180.246 43.894 180.316 43.964 180.316 44.104V44.79C180.316 44.93 180.246 45 180.106 45H178.524C178.403 45 178.333 44.93 178.314 44.79L178.202 43.964C177.726 44.7667 176.966 45.168 175.92 45.168C175.006 45.168 174.301 44.8833 173.806 44.314C173.312 43.7353 173.064 42.844 173.064 41.64C173.064 40.4267 173.349 39.5027 173.918 38.868C174.497 38.2333 175.239 37.916 176.144 37.916C176.555 37.916 176.919 37.9953 177.236 38.154C177.554 38.3033 177.787 38.4853 177.936 38.7V35.718H177.194C177.054 35.718 176.984 35.648 176.984 35.508V34.766C176.984 34.626 177.054 34.556 177.194 34.556H179.294C179.434 34.556 179.504 34.626 179.504 34.766V43.894ZM177.936 42.368V39.904C177.815 39.7173 177.6 39.5447 177.292 39.386C176.994 39.2273 176.69 39.148 176.382 39.148C175.225 39.148 174.646 39.932 174.646 41.5C174.646 42.704 174.908 43.4553 175.43 43.754C175.654 43.8847 175.962 43.95 176.354 43.95C176.746 43.95 177.106 43.8053 177.432 43.516C177.768 43.2267 177.936 42.844 177.936 42.368Z" fill="#2D2D2D"/>
<path d="M18.4397 4.00001H49V34.5797C49 39.4651 47.06 44.1504 43.6067 47.6048C40.1535 51.0593 35.4699 53 30.5862 53H0V22.4289C-1.06014e-06 20.0073 0.477079 17.6095 1.40397 15.3725C2.33086 13.1355 3.68939 11.1031 5.40189 9.39161C7.1144 7.6801 9.1473 6.32299 11.3844 5.39787C13.6215 4.47275 16.0189 3.99774 18.4397 4.00001Z" fill="#6C5DD3"/>
<path d="M36.7295 22.6117H36.58C36.1294 22.6275 35.6815 22.6871 35.2433 22.7894H35.1378C33.6969 23.1646 32.4467 24.0309 31.62 25.227C31.9239 24.4108 32.4085 23.6679 33.0401 23.0497C33.6718 22.4315 34.4356 21.9528 35.2785 21.6468C35.2223 19.6474 34.4669 17.7248 33.1347 16.1898C31.8024 14.6548 29.9711 13.5971 27.9368 13.188C25.9026 12.7788 23.7845 13.042 21.9249 13.935C20.0654 14.828 18.5732 16.2985 17.6897 18.1089C18.8298 18.7907 19.771 19.7403 20.4249 20.8686C21.0787 21.9968 21.4237 23.2665 21.4273 24.5584C21.4273 24.6261 21.4273 24.6853 21.4273 24.7446C21.1272 23.6485 20.5768 22.6306 19.8161 21.7652C19.0554 20.8999 18.1036 20.2088 17.0301 19.7424C16.7869 19.6327 16.5373 19.5366 16.2826 19.4546H16.2298C16.0107 19.3809 15.7876 19.3187 15.5615 19.2684H15.368C15.1745 19.2261 14.9898 19.2007 14.7963 19.1753H14.5589C14.3195 19.1483 14.0788 19.1342 13.8378 19.133H13.7762C13.5827 19.133 13.398 19.133 13.2133 19.133H12.9847L12.6681 19.1838C12.5115 19.1974 12.3558 19.22 12.202 19.2515L11.9206 19.3192C11.7602 19.3507 11.6017 19.3903 11.4457 19.4377L11.1731 19.5308L10.7245 19.6916L10.4343 19.8186L10.0386 20.0048C9.93304 20.0556 9.82751 20.1233 9.72198 20.1825L9.39659 20.3772L9.07999 20.648C8.99205 20.7157 8.89531 20.775 8.81616 20.8427C8.73701 20.9104 8.57871 21.0374 8.46438 21.1389L8.25332 21.3167L7.91033 21.6806L7.75204 21.8499C7.63771 21.9769 7.52338 22.1208 7.41785 22.2646L7.30352 22.417C7.1892 22.5693 7.09246 22.7302 6.98692 22.891L6.90777 23.0264C6.80469 23.1952 6.7136 23.3705 6.63515 23.5512L6.56479 23.6781C6.48564 23.8643 6.41529 24.0505 6.34493 24.2367C6.34118 24.279 6.34118 24.3215 6.34493 24.3637C6.27458 24.5499 6.22181 24.753 6.16905 24.9477C6.16905 24.99 6.16905 25.0323 6.16905 25.0747C6.16905 25.2778 6.0899 25.4725 6.06351 25.6756V25.8195C6.06351 26.0226 6.06352 26.2173 6.01954 26.4204C5.97557 26.6236 6.01954 26.632 6.01954 26.7336C6.01954 28.7539 6.85344 30.6914 8.33778 32.12C9.82212 33.5486 11.8353 34.3511 13.9345 34.3511C14.3143 34.3489 14.6934 34.3206 15.069 34.2665V42.485C15.069 43.3313 19.5541 44 25.0858 44C30.6174 44 35.0498 43.3144 35.0498 42.485V34.1903C35.6398 34.3638 36.2533 34.4523 36.8702 34.4527C38.1458 34.4513 39.3894 34.0686 40.4292 33.3575C41.469 32.6464 42.2536 31.642 42.6745 30.4831C42.7273 30.3477 42.7713 30.2123 42.8153 30.0684C42.8122 30.0459 42.8122 30.0231 42.8153 30.0007C42.8153 29.8568 42.8856 29.7129 42.912 29.569C42.9163 29.5438 42.9163 29.5181 42.912 29.4928C42.9722 29.1774 43.0016 28.8572 42.9999 28.5364C43.0001 27.749 42.8371 26.9695 42.5206 26.2434C42.2041 25.5173 41.7404 24.8592 41.1566 24.3076C40.5728 23.756 39.8806 23.3219 39.1205 23.0307C38.3604 22.7395 37.5475 22.597 36.7295 22.6117ZM26.0619 13.9277C28.0365 13.9275 29.9488 14.5928 31.4669 15.8081C32.985 17.0233 34.0131 18.7117 34.3726 20.5803C33.6577 18.7208 32.3669 17.1173 30.6746 15.9866C28.9822 14.8559 26.97 14.2524 24.9099 14.2578C24.3197 14.2592 23.7309 14.313 23.151 14.4186C24.0836 14.091 25.0691 13.9248 26.0619 13.9277ZM24.9626 32.3367C29.7116 32.3367 33.6075 33.0985 34.0209 33.9364C32.6226 33.4201 29.1048 33.09 24.9626 33.09C20.8205 33.09 17.3027 33.454 15.9044 33.9364C16.3266 33.0985 20.2137 32.3367 24.9626 32.3367ZM24.9626 39.5226C29.7116 39.5226 33.6251 40.1151 34.0209 40.8006C32.6226 40.2843 29.1048 39.9542 24.9626 39.9542C20.8205 39.9542 17.3027 40.3182 15.9044 40.8006C16.2914 40.1151 20.2137 39.5226 24.9626 39.5226ZM24.9626 43.179C19.9411 43.179 15.8605 42.6035 15.8605 41.884C15.8605 41.1646 19.9411 40.5975 24.9626 40.5975C29.9842 40.5975 34.0648 41.173 34.0648 41.884C34.0648 42.595 29.993 43.179 24.9626 43.179ZM36.0875 23.6273C35.7159 23.631 35.3452 23.6649 34.9795 23.7289C35.5604 23.5258 36.1731 23.4199 36.7911 23.4157C38.0341 23.4089 39.2396 23.8246 40.1953 24.5895C41.151 25.3544 41.7954 26.4195 42.015 27.5969C41.564 26.4334 40.7549 25.43 39.6958 24.7207C38.6366 24.0114 37.3779 23.63 36.0875 23.6273Z" fill="white"/>
</svg>
