<svg width="34" height="34" viewBox="0 0 34 34" fill="none" xmlns="http://www.w3.org/2000/svg">
<circle cx="17" cy="17" r="17" fill="#D9D9D9" fill-opacity="0.34"/>
<circle cx="17" cy="17" r="12" fill="white"/>
<path d="M21.4579 14.7206H21.3973C21.2146 14.7268 21.0331 14.7498 20.8554 14.7894H20.8126C20.2285 14.9347 19.7217 15.27 19.3865 15.733C19.5097 15.4171 19.7061 15.1295 19.9622 14.8902C20.2183 14.6509 20.5279 14.4656 20.8696 14.3471C20.8469 13.5732 20.5407 12.8289 20.0005 12.2348C19.4604 11.6406 18.718 11.2312 17.8933 11.0728C17.0686 10.9144 16.2099 11.0163 15.4561 11.3619C14.7022 11.7076 14.0972 12.2769 13.7391 12.9776C14.2013 13.2415 14.5829 13.6092 14.8479 14.0459C15.113 14.4826 15.2528 14.9741 15.2543 15.4742C15.2543 15.5004 15.2543 15.5234 15.2543 15.5463C15.1327 15.122 14.9095 14.728 14.6011 14.393C14.2927 14.058 13.9069 13.7905 13.4717 13.61C13.3731 13.5675 13.2719 13.5303 13.1686 13.4986H13.1472C13.0584 13.47 12.9679 13.446 12.8763 13.4265H12.7978C12.7194 13.4101 12.6445 13.4003 12.5661 13.3904H12.4698C12.3728 13.38 12.2752 13.3745 12.1775 13.3741H12.1525C12.0741 13.3741 11.9992 13.3741 11.9243 13.3741H11.8316L11.7033 13.3937C11.6398 13.399 11.5767 13.4078 11.5143 13.4199L11.4002 13.4461C11.3352 13.4584 11.271 13.4737 11.2077 13.492L11.0972 13.5281L10.9154 13.5903L10.7977 13.6394L10.6373 13.7115C10.5945 13.7312 10.5517 13.7574 10.5089 13.7803L10.377 13.8557L10.2486 13.9605C10.213 13.9867 10.1738 14.0097 10.1417 14.0359C10.1096 14.0621 10.0454 14.1112 9.99907 14.1506L9.91351 14.2194L9.77446 14.3602L9.71029 14.4258C9.66394 14.4749 9.61759 14.5306 9.5748 14.5863L9.52846 14.6453C9.48211 14.7043 9.44289 14.7665 9.4001 14.8288L9.36802 14.8812C9.32622 14.9465 9.2893 15.0144 9.25749 15.0843L9.22897 15.1335C9.19688 15.2055 9.16836 15.2776 9.13984 15.3497C9.13832 15.3661 9.13832 15.3825 9.13984 15.3989C9.11132 15.4709 9.08992 15.5496 9.06853 15.6249C9.06853 15.6413 9.06853 15.6577 9.06853 15.6741C9.06853 15.7527 9.03644 15.8281 9.02575 15.9067V15.9624C9.02575 16.041 9.02575 16.1164 9.00792 16.195C8.9901 16.2736 9.00792 16.2769 9.00792 16.3162C9.00792 17.0983 9.34599 17.8483 9.94775 18.4013C10.5495 18.9543 11.3657 19.265 12.2167 19.265C12.3706 19.2641 12.5243 19.2531 12.6766 19.2322V22.4135C12.6766 22.7412 14.4949 23 16.7375 23C18.98 23 20.7769 22.7346 20.7769 22.4135V19.2027C21.0161 19.2699 21.2648 19.3041 21.515 19.3043C22.0321 19.3037 22.5363 19.1556 22.9578 18.8803C23.3793 18.6051 23.6974 18.2163 23.8681 17.7677C23.8894 17.7152 23.9073 17.6628 23.9251 17.6071C23.9239 17.5984 23.9239 17.5896 23.9251 17.5809C23.9251 17.5252 23.9536 17.4695 23.9643 17.4138C23.9661 17.404 23.9661 17.3941 23.9643 17.3843C23.9887 17.2622 24.0006 17.1383 24 17.0141C24 16.7093 23.934 16.4075 23.8057 16.1265C23.6774 15.8454 23.4894 15.5907 23.2527 15.3771C23.016 15.1636 22.7354 14.9956 22.4272 14.8828C22.1191 14.7701 21.7895 14.715 21.4579 14.7206ZM17.1332 11.3591C17.9337 11.3591 18.709 11.6166 19.3244 12.087C19.9399 12.5574 20.3566 13.211 20.5024 13.9343C20.2126 13.2145 19.6893 12.5938 19.0032 12.1561C18.3171 11.7184 17.5014 11.4848 16.6662 11.4869C16.4269 11.4874 16.1882 11.5083 15.9531 11.5491C16.3312 11.4223 16.7307 11.358 17.1332 11.3591ZM16.6876 18.4852C18.6128 18.4852 20.1922 18.7801 20.3598 19.1044C19.7929 18.9046 18.3668 18.7768 16.6876 18.7768C15.0083 18.7768 13.5822 18.9177 13.0153 19.1044C13.1864 18.7801 14.7623 18.4852 16.6876 18.4852ZM16.6876 21.2668C18.6128 21.2668 20.1994 21.4962 20.3598 21.7615C19.7929 21.5617 18.3668 21.4339 16.6876 21.4339C15.0083 21.4339 13.5822 21.5748 13.0153 21.7615C13.1722 21.4962 14.7623 21.2668 16.6876 21.2668ZM16.6876 22.6822C14.6518 22.6822 12.9975 22.4594 12.9975 22.1809C12.9975 21.9024 14.6518 21.6829 16.6876 21.6829C18.7233 21.6829 20.3776 21.9057 20.3776 22.1809C20.3776 22.4561 18.7269 22.6822 16.6876 22.6822ZM21.1977 15.1138C21.047 15.1152 20.8967 15.1284 20.7484 15.1531C20.9839 15.0745 21.2323 15.0335 21.4829 15.0319C21.9868 15.0292 22.4755 15.1902 22.863 15.4863C23.2504 15.7823 23.5116 16.1946 23.6007 16.6504C23.4178 16.2 23.0898 15.8116 22.6604 15.537C22.2311 15.2625 21.7208 15.1148 21.1977 15.1138Z" fill="#6C5DD3"/>
</svg>
