<svg width="48" height="48" viewBox="0 0 48 48" fill="none" xmlns="http://www.w3.org/2000/svg">
<rect width="48" height="48" rx="17" fill="white"/>
<path opacity="0.4" d="M30.8088 21.021C30.3573 21.021 29.7592 21.011 29.0146 21.011C27.1987 21.011 25.7055 19.508 25.7055 17.675V14.459C25.7055 14.206 25.5036 14 25.253 14H19.9636C17.4952 14 15.5 16.026 15.5 18.509V29.284C15.5 31.889 17.5902 34 20.1696 34H28.0463C30.5058 34 32.5 31.987 32.5 29.502V21.471C32.5 21.217 32.299 21.012 32.0475 21.013C31.6247 21.016 31.1177 21.021 30.8088 21.021Z" fill="#130F26"/>
<path opacity="0.4" d="M28.084 14.5673C27.785 14.2563 27.263 14.4703 27.263 14.9013V17.5383C27.263 18.6443 28.174 19.5543 29.28 19.5543C29.977 19.5623 30.945 19.5643 31.767 19.5623C32.188 19.5613 32.402 19.0583 32.11 18.7543C31.055 17.6573 29.166 15.6913 28.084 14.5673Z" fill="#130F26"/>
<path fill-rule="evenodd" clip-rule="evenodd" d="M20.9739 23.3876H24.3589C24.7699 23.3876 25.1039 23.0546 25.1039 22.6436C25.1039 22.2326 24.7699 21.8986 24.3589 21.8986H20.9739C20.5629 21.8986 20.2299 22.2326 20.2299 22.6436C20.2299 23.0546 20.5629 23.3876 20.9739 23.3876ZM20.974 28.3818H26.418C26.829 28.3818 27.163 28.0488 27.163 27.6378C27.163 27.2268 26.829 26.8928 26.418 26.8928H20.974C20.563 26.8928 20.23 27.2268 20.23 27.6378C20.23 28.0488 20.563 28.3818 20.974 28.3818Z" fill="#130F26"/>
</svg>
