<svg width="48" height="48" viewBox="0 0 48 48" fill="none" xmlns="http://www.w3.org/2000/svg">
<rect width="48" height="48" rx="17" fill="white"/>
<path d="M23.949 26.5399C20.499 26.5399 17.5881 27.1037 17.5881 29.2794C17.5881 31.4561 20.5178 32 23.949 32C27.399 32 30.31 31.4363 30.31 29.2605C30.31 27.0839 27.3802 26.5399 23.949 26.5399Z" fill="#130F26"/>
<path opacity="0.4" d="M23.949 24.467C26.2851 24.467 28.1583 22.5831 28.1583 20.2335C28.1583 17.8831 26.2851 16 23.949 16C21.6129 16 19.7397 17.8831 19.7397 20.2335C19.7397 22.5831 21.6129 24.467 23.949 24.467Z" fill="#130F26"/>
<path opacity="0.4" d="M33.0879 21.2193C33.6923 18.8418 31.9203 16.7066 29.6639 16.7066C29.4186 16.7066 29.184 16.7336 28.9548 16.7795C28.9243 16.7867 28.8903 16.802 28.8724 16.8291C28.8518 16.8633 28.867 16.9092 28.8894 16.9389C29.5672 17.8953 29.9567 19.0597 29.9567 20.3097C29.9567 21.5074 29.5995 22.6241 28.9727 23.5508C28.9082 23.6463 28.9655 23.775 29.0792 23.7949C29.2368 23.8228 29.398 23.8372 29.5627 23.8417C31.2058 23.8849 32.6805 22.8214 33.0879 21.2193Z" fill="#130F26"/>
<path d="M34.8093 26.8169C34.5084 26.1721 33.7823 25.73 32.6782 25.5129C32.1571 25.3851 30.7468 25.2049 29.4351 25.2293C29.4154 25.232 29.4046 25.2455 29.4028 25.2545C29.4002 25.2671 29.4055 25.2887 29.4315 25.3022C30.0377 25.6039 32.381 26.916 32.0864 29.6834C32.0738 29.8032 32.1696 29.9067 32.2887 29.8887C32.8654 29.8059 34.349 29.4853 34.8093 28.4866C35.0636 27.9588 35.0636 27.3456 34.8093 26.8169Z" fill="#130F26"/>
<path opacity="0.4" d="M19.0448 16.7798C18.8165 16.733 18.581 16.7068 18.3357 16.7068C16.0793 16.7068 14.3073 18.8421 14.9125 21.2195C15.3191 22.8216 16.7938 23.8852 18.4369 23.842C18.6016 23.8374 18.7637 23.8221 18.9204 23.7951C19.0341 23.7753 19.0914 23.6465 19.0269 23.5511C18.4001 22.6235 18.0429 21.5077 18.0429 20.31C18.0429 19.0591 18.4333 17.8947 19.1111 16.9392C19.1326 16.9095 19.1487 16.8635 19.1272 16.8293C19.1093 16.8014 19.0762 16.787 19.0448 16.7798Z" fill="#130F26"/>
<path d="M15.3216 25.5127C14.2175 25.7297 13.4922 26.1719 13.1914 26.8167C12.9362 27.3453 12.9362 27.9586 13.1914 28.4872C13.6516 29.485 15.1353 29.8065 15.712 29.8885C15.831 29.9065 15.926 29.8038 15.9134 29.6831C15.6188 26.9166 17.9621 25.6045 18.5692 25.3028C18.5943 25.2884 18.5996 25.2677 18.5969 25.2542C18.5951 25.2452 18.5853 25.2317 18.5656 25.2299C17.2529 25.2047 15.8436 25.3848 15.3216 25.5127Z" fill="#130F26"/>
</svg>
